<svg width="18" height="18" viewBox="0 0 18 18" fill="none" xmlns="http://www.w3.org/2000/svg">
<path d="M12.8652 2.70001C11.4547 2.70001 10.2198 3.32453 9.44999 4.38017C8.68021 3.32453 7.44528 2.70001 6.03481 2.70001C4.91205 2.70132 3.83564 3.16113 3.04174 3.97858C2.24783 4.79604 1.80125 5.90436 1.79999 7.06042C1.79999 11.9835 8.88922 15.9683 9.19112 16.1329C9.27069 16.1769 9.35963 16.2 9.44999 16.2C9.54034 16.2 9.62929 16.1769 9.70886 16.1329C10.0108 15.9683 17.1 11.9835 17.1 7.06042C17.0987 5.90436 16.6521 4.79604 15.8582 3.97858C15.0643 3.16113 13.9879 2.70132 12.8652 2.70001ZM9.44999 14.9935C8.20276 14.2452 2.89284 10.8364 2.89284 7.06042C2.89393 6.20275 3.2253 5.38052 3.8143 4.77406C4.4033 4.1676 5.20184 3.82639 6.03481 3.82528C7.36331 3.82528 8.47871 4.55389 8.94454 5.72416C8.98571 5.82736 9.05574 5.91562 9.14574 5.97773C9.23574 6.03985 9.34164 6.07301 9.44999 6.07301C9.55833 6.07301 9.66424 6.03985 9.75423 5.97773C9.84423 5.91562 9.91427 5.82736 9.95543 5.72416C10.4213 4.55178 11.5367 3.82528 12.8652 3.82528C13.6981 3.82639 14.4967 4.1676 15.0857 4.77406C15.6747 5.38052 16.006 6.20275 16.0071 7.06042C16.0071 10.8308 10.6958 14.2445 9.44999 14.9935Z" fill="#28725C"/>
</svg>
