<svg width="76" height="74" viewBox="0 0 76 74" fill="none" xmlns="http://www.w3.org/2000/svg">
<path d="M14.9549 11.6907C11.675 13.3984 8.61427 15.5191 5.42757 17.3834C4.76303 17.5429 4.06192 17.525 3.43702 17.8011C2.29443 18.3058 1.33376 19.81 0.787891 20.8348C-0.197939 22.6856 -0.0116446 25.2728 0.0680198 27.3315C0.155005 29.5793 0.349478 32.0104 0.84548 34.2288C1.71102 38.1001 0.750361 42.1747 1.62294 46.0774C2.09208 48.1757 3.68045 50.0846 5.25109 51.4723C6.83931 52.8754 8.13109 54.2974 9.25357 56.123C10.6127 58.3335 11.394 60.5251 13.4288 62.3049C16.3052 64.8207 19.1843 67.0541 22.4416 69.0162C29.6344 73.349 39.2922 75.3046 47.5507 73.0659C55.9731 70.7829 64.3308 64.1902 67.7071 56.0658C69.249 52.3553 71.197 48.9133 73.1691 45.4288L73.2069 45.3619C74.0995 43.7847 75.3974 42.2447 75.6833 40.4107C75.8854 39.1137 76 37.8582 76 36.547C76 31.5575 73.9639 26.3098 71.8391 21.8222C69.2399 16.3323 66.0831 11.4428 62.0057 6.93985C60.0056 4.73099 57.7533 2.28099 54.9942 1.00124C51.7507 -0.503183 46.6735 -0.0347452 43.2603 0.614875C39.9687 1.24135 36.6668 1.76529 33.3836 2.41792C30.5531 2.98059 27.6661 3.68304 25.3499 5.50886C22.2676 7.93858 18.4407 9.87596 14.9549 11.6907Z" fill="#FFF500"/>
</svg>
