<?xml version="1.0" standalone="no"?>
<!DOCTYPE svg PUBLIC "-//W3C//DTD SVG 20010904//EN"
 "http://www.w3.org/TR/2001/REC-SVG-20010904/DTD/svg10.dtd">
<svg version="1.0" xmlns="http://www.w3.org/2000/svg"
 width="1200.000000pt" height="1200.000000pt" viewBox="0 0 1200.000000 1200.000000"
 preserveAspectRatio="xMidYMid meet">
<metadata>
Created by potrace 1.14, written by Peter Selinger 2001-2017
</metadata>
<g transform="translate(0.000000,1200.000000) scale(0.100000,-0.100000)"
fill="#000000" stroke="none">
<path d="M2448 9925 c-7 0 -3 -4957 4 -4961 12 -8 266 -6 278 1 5 3 9 510 9
1168 0 639 0 1172 1 1184 0 21 5 22 83 23 45 0 91 1 102 1 18 0 607 0 645 0 8
0 152 0 320 0 168 0 312 0 320 0 8 0 152 0 320 0 168 0 310 0 315 0 6 0 183 0
395 0 212 0 394 0 405 0 11 0 123 -2 250 -3 l229 -3 0 -2782 -1 -2781 23 -11
c15 -6 24 -7 24 -1 0 6 9 6 25 0 15 -6 26 -6 30 0 4 6 13 7 23 1 11 -6 24 -6
34 0 10 6 19 6 23 0 4 -7 15 -7 30 -1 14 5 25 6 25 2 0 -4 25 -7 55 -7 30 0
55 3 55 7 0 4 11 3 25 -2 15 -6 27 -6 30 0 3 5 12 7 19 4 21 -8 166 -10 166
-2 0 4 11 3 25 -2 15 -6 27 -6 30 0 3 6 15 6 30 0 15 -6 27 -6 30 0 4 6 13 7
23 1 11 -6 24 -6 34 0 10 6 19 6 23 0 4 -7 15 -7 30 -1 14 5 25 6 25 2 0 -8
85 -6 108 3 6 2 12 1 12 -3 0 -4 25 -7 55 -7 30 0 55 3 55 7 0 4 11 3 25 -2
15 -6 27 -6 30 0 3 6 15 6 30 0 15 -6 27 -6 30 0 4 6 13 7 23 1 11 -6 24 -6
34 0 10 6 19 6 23 0 4 -7 15 -7 30 -1 14 5 25 6 25 2 0 -8 85 -6 108 3 6 2 12
1 12 -3 0 -4 25 -7 55 -7 30 0 55 3 55 7 0 4 11 3 25 -2 15 -6 27 -6 30 0 3 6
15 6 30 0 15 -6 27 -6 30 0 4 6 13 7 23 1 11 -6 24 -6 34 0 10 6 19 6 23 0 4
-7 15 -7 30 -1 14 5 25 6 25 2 0 -8 85 -6 108 3 6 2 12 1 12 -3 0 -4 17 -6 37
-5 21 1 81 5 134 7 53 3 112 8 130 10 19 2 61 7 94 11 33 4 69 9 80 12 11 2
29 6 40 7 100 17 213 47 310 83 83 31 219 95 223 106 2 4 8 7 14 7 12 0 129
82 172 119 113 102 179 185 254 324 32 58 95 234 105 292 3 17 8 41 11 55 27
123 28 556 1 600 -2 3 -6 22 -9 43 -22 136 -121 343 -221 457 -99 115 -233
219 -364 285 -98 49 -218 95 -258 97 -7 1 -13 5 -13 9 0 4 -6 7 -12 6 -7 0
-22 1 -33 1 -17 2 -16 4 9 17 15 8 34 15 41 15 16 0 215 102 259 132 243 168
405 389 471 641 34 129 42 208 40 371 -3 133 -7 179 -22 251 -4 17 -7 35 -8
40 0 6 -7 30 -14 55 -7 25 -15 53 -17 63 -8 43 -84 198 -131 267 -78 115 -155
192 -308 307 -10 8 -75 44 -130 72 -16 9 -32 19 -35 22 -6 7 -197 79 -225 85
-11 2 -31 8 -45 13 -52 20 -193 47 -345 67 -99 13 -295 16 -1025 19 -448 1
-818 3 -823 4 -4 0 -7 717 -6 1592 0 1036 -3 1594 -9 1598 -6 3 -72 6 -149 5
l-138 0 0 -1155 0 -1154 -1688 0 c-929 0 -1691 3 -1694 8 -2 4 -5 524 -5 1155
l0 1147 -144 0 c-79 0 -145 0 -146 0z m5747 -3488 c17 -3 51 -8 78 -11 26 -2
60 -7 75 -10 15 -4 36 -8 47 -10 113 -23 228 -60 325 -104 64 -30 163 -91 168
-103 2 -5 9 -9 16 -9 20 0 144 -129 190 -198 43 -66 90 -160 102 -207 1 -5 9
-37 18 -70 25 -90 30 -137 30 -285 -1 -165 -9 -225 -52 -365 -43 -139 -167
-311 -293 -407 -139 -105 -383 -196 -599 -224 -25 -3 -56 -7 -70 -10 -82 -13
-299 -17 -1007 -17 -436 0 -796 2 -799 6 -8 8 -9 246 -1 254 4 3 4 10 0 16 -8
13 -7 212 1 226 4 5 2 12 -4 16 -6 4 -7 11 -4 17 4 5 6 344 6 751 0 408 2 745
4 749 5 8 1723 3 1769 -5z m-30 -2312 c171 -7 209 -12 340 -40 561 -120 823
-397 851 -900 7 -126 7 -106 0 -205 -9 -118 -12 -136 -30 -214 -37 -155 -114
-297 -215 -396 -131 -128 -365 -242 -586 -285 -85 -17 -199 -34 -270 -41 -111
-10 -1826 -11 -1832 -1 -7 12 -7 1177 1 1184 3 3 3 10 -1 16 -8 13 -7 216 1
224 3 3 3 10 -1 16 -8 13 -7 216 1 224 3 3 3 10 -1 16 -8 13 -7 216 1 224 3 3
3 10 -1 16 -5 8 -7 119 -4 159 1 7 1575 17 1606 11 6 -1 69 -4 140 -8z"/>
</g>
</svg>
