<?xml version="1.0" encoding="UTF-8"?>
<svg id="Layer_1" data-name="Layer 1" xmlns="http://www.w3.org/2000/svg" version="1.1" viewBox="0 0 66 66">
  <defs>
    <style>
      .cls-1 {
        fill: #28725c;
        stroke-width: 0px;
      }
    </style>
  </defs>
  <path class="cls-1" d="M10.4,38.5V7.5h1.8v14.4h21.2V7.5h1.8v31h-1.8v-14.9H12.3v14.9h-1.8Z"/>
  <path class="cls-1" d="M33.4,58.5v-31h11.3c3.3,0,5.8.7,7.5,2.1,1.8,1.4,2.6,3.4,2.6,6s-.6,3.6-1.8,4.9c-1.2,1.3-2.8,2.1-4.9,2.6v-.6c2.3.2,4.1,1,5.5,2.3,1.3,1.3,2,3.1,2,5.4s-.9,4.9-2.6,6.3c-1.8,1.4-4.3,2.1-7.6,2.1h-11.9ZM35.3,56.8h10c2.5,0,4.5-.5,6.1-1.5,1.5-1,2.3-2.7,2.3-5.1s-.8-4.1-2.3-5.1c-1.5-1-3.5-1.5-6.1-1.5h-10v13.1ZM35.3,42h9.4c2.7,0,4.8-.5,6.2-1.6,1.4-1.1,2.1-2.7,2.1-4.8s-.7-3.7-2.1-4.8c-1.4-1.1-3.5-1.6-6.2-1.6h-9.4v12.8Z"/>
</svg>