<svg width="28" height="28" viewBox="0 0 28 28" fill="none" xmlns="http://www.w3.org/2000/svg">
<path d="M9.09998 2.33331H18.9C22.6333 2.33331 25.6666 5.36665 25.6666 9.09998V18.9C25.6666 20.6946 24.9537 22.4157 23.6847 23.6847C22.4157 24.9537 20.6946 25.6666 18.9 25.6666H9.09998C5.36665 25.6666 2.33331 22.6333 2.33331 18.9V9.09998C2.33331 7.30535 3.04623 5.58422 4.31522 4.31522C5.58422 3.04623 7.30535 2.33331 9.09998 2.33331ZM8.86665 4.66665C7.75274 4.66665 6.68445 5.10915 5.8968 5.8968C5.10915 6.68445 4.66665 7.75274 4.66665 8.86665V19.1333C4.66665 21.455 6.54498 23.3333 8.86665 23.3333H19.1333C20.2472 23.3333 21.3155 22.8908 22.1032 22.1032C22.8908 21.3155 23.3333 20.2472 23.3333 19.1333V8.86665C23.3333 6.54498 21.455 4.66665 19.1333 4.66665H8.86665ZM20.125 6.41665C20.5118 6.41665 20.8827 6.57029 21.1562 6.84378C21.4297 7.11727 21.5833 7.48821 21.5833 7.87498C21.5833 8.26175 21.4297 8.63269 21.1562 8.90618C20.8827 9.17967 20.5118 9.33331 20.125 9.33331C19.7382 9.33331 19.3673 9.17967 19.0938 8.90618C18.8203 8.63269 18.6666 8.26175 18.6666 7.87498C18.6666 7.48821 18.8203 7.11727 19.0938 6.84378C19.3673 6.57029 19.7382 6.41665 20.125 6.41665ZM14 8.16665C15.5471 8.16665 17.0308 8.78123 18.1248 9.87519C19.2187 10.9692 19.8333 12.4529 19.8333 14C19.8333 15.5471 19.2187 17.0308 18.1248 18.1248C17.0308 19.2187 15.5471 19.8333 14 19.8333C12.4529 19.8333 10.9692 19.2187 9.87519 18.1248C8.78123 17.0308 8.16665 15.5471 8.16665 14C8.16665 12.4529 8.78123 10.9692 9.87519 9.87519C10.9692 8.78123 12.4529 8.16665 14 8.16665ZM14 10.5C13.0717 10.5 12.1815 10.8687 11.5251 11.5251C10.8687 12.1815 10.5 13.0717 10.5 14C10.5 14.9282 10.8687 15.8185 11.5251 16.4749C12.1815 17.1312 13.0717 17.5 14 17.5C14.9282 17.5 15.8185 17.1312 16.4749 16.4749C17.1312 15.8185 17.5 14.9282 17.5 14C17.5 13.0717 17.1312 12.1815 16.4749 11.5251C15.8185 10.8687 14.9282 10.5 14 10.5Z" fill="black"/>
</svg>
