<svg width="23" height="23" viewBox="0 0 23 23" fill="none" xmlns="http://www.w3.org/2000/svg">
<path fill-rule="evenodd" clip-rule="evenodd" d="M21.083 2.875C22.1409 2.875 23 3.7329 23 4.79205V18.2079C23 19.2659 22.1421 20.125 21.083 20.125H1.91705C0.85905 20.125 0 19.2671 0 18.2079V4.79205C0 3.73405 0.8579 2.875 1.91705 2.875H21.083ZM8.2432 13.0272L2.5967 18.607H20.2204L14.6349 13.0847L11.5 15.2548L8.2432 13.0272ZM21.436 8.3858L15.9206 12.1992L21.436 17.6456V8.3858ZM1.56515 8.45595V17.4674L6.95405 12.1417L1.56515 8.45595ZM21.0645 4.39415H1.9527C1.84776 4.38923 1.7449 4.42461 1.6652 4.49305C1.62978 4.52477 1.60244 4.56447 1.58544 4.60887C1.56844 4.65328 1.56227 4.70109 1.56745 4.74835V6.61135L11.5 13.4044L21.4406 6.54465V4.82885C21.4417 4.67475 21.4061 4.5632 21.3348 4.49305C21.2994 4.4586 21.2571 4.43199 21.2108 4.41495C21.1644 4.39791 21.115 4.39083 21.0657 4.39415" fill="black"/>
</svg>
