<svg width="25" height="24" viewBox="0 0 25 24" fill="none" xmlns="http://www.w3.org/2000/svg">
<path d="M17.1512 16.3989L17.7357 15.8112L16.3782 14.4308L15.7962 15.0185L17.1512 16.3989ZM19.6958 15.5647L22.1456 16.9126L23.0622 15.2027L20.6137 13.8561L19.6958 15.5647ZM22.616 19.5903L20.7957 21.4234L22.1507 22.8025L23.971 20.9707L22.616 19.5903ZM19.6856 22.0124C17.8268 22.1889 13.0195 22.0319 7.81231 16.7933L6.45603 18.1723C12.1375 23.8897 17.546 24.1699 19.865 23.9506L19.6856 22.0124ZM7.81231 16.7933C2.84995 11.7985 2.02696 7.59908 1.9244 5.77633L0.00406811 5.8866C0.132261 8.18028 1.1514 12.8351 6.45603 18.1723L7.81231 16.7933ZM9.57496 8.77576L9.94288 8.40472L8.58916 7.02566L8.22125 7.3954L9.57496 8.77576ZM10.2352 3.68892L8.61993 1.50422L7.08033 2.67182L8.69556 4.85523L10.2352 3.68892ZM3.18326 1.0281L1.17063 3.05193L2.52691 4.43229L4.53826 2.40846L3.18326 1.0281ZM8.8981 8.08558C8.21868 7.3954 8.21868 7.3954 8.21868 7.39799H8.21612L8.21227 7.40318C8.15175 7.4657 8.09723 7.5339 8.04947 7.60686C7.98024 7.71065 7.90461 7.84687 7.84051 8.01942C7.68441 8.46481 7.64553 8.94365 7.7277 9.40886C7.89948 10.531 8.66351 12.0139 10.6197 13.9832L11.976 12.6029C10.1441 10.7607 9.70829 9.63978 9.62752 9.11047C9.58907 8.85879 9.62881 8.73424 9.64034 8.7057C9.64675 8.68754 9.64932 8.68624 9.64034 8.69792C9.62904 8.71591 9.61617 8.73284 9.60188 8.74852L9.58907 8.76149C9.58492 8.76552 9.58065 8.76942 9.57625 8.77316L8.8981 8.08558ZM10.6197 13.9832C12.5772 15.9526 14.0502 16.7206 15.1603 16.8919C15.7282 16.9801 16.1859 16.91 16.5333 16.779C16.7276 16.7062 16.9093 16.6029 17.0717 16.4728C17.0938 16.4542 17.1151 16.4347 17.1358 16.4144L17.1448 16.4067L17.1486 16.4028L17.1499 16.4002C17.1499 16.4002 17.1512 16.3989 16.473 15.7087C15.7936 15.0185 15.7975 15.0172 15.7975 15.0172L15.8 15.0146L15.8026 15.012L15.8103 15.0055L15.8231 14.9926C15.8385 14.9786 15.8548 14.9656 15.8718 14.9537C15.8846 14.9446 15.8808 14.9485 15.8628 14.9562C15.8308 14.9679 15.7052 15.0081 15.4526 14.9692C14.9219 14.8862 13.8066 14.4451 11.976 12.6029L10.6197 13.9832ZM8.61993 1.50292C7.31236 -0.261449 4.74337 -0.541673 3.18326 1.0281L4.53826 2.40846C5.22024 1.72217 6.43039 1.79352 7.08033 2.67182L8.61993 1.50292ZM1.92568 5.77763C1.90004 5.32875 2.10387 4.85912 2.52691 4.43359L1.16934 3.05323C0.480947 3.74601 -0.0613104 4.72679 0.00406811 5.8866L1.92568 5.77763ZM20.7957 21.4234C20.4445 21.7789 20.065 21.9787 19.6868 22.0137L19.865 23.9506C20.8072 23.8611 21.5777 23.3811 22.152 22.8038L20.7957 21.4234ZM9.94288 8.40472C11.2056 7.13464 11.2992 5.12766 10.2364 3.69022L8.69684 4.85652C9.21346 5.55578 9.13654 6.473 8.58788 7.02696L9.94288 8.40472ZM22.1469 16.9139C23.1942 17.4899 23.357 18.8469 22.6173 19.5916L23.9736 20.9707C25.6914 19.2413 25.162 16.3574 23.0634 15.204L22.1469 16.9139ZM17.7357 15.8125C18.228 15.3169 19.0202 15.195 19.6971 15.566L20.615 13.8574C19.2253 13.092 17.5024 13.3034 16.3795 14.4321L17.7357 15.8125Z" fill="black"/>
</svg>
